<svg width="1281" height="685" viewBox="0 0 1281 685" fill="none" xmlns="http://www.w3.org/2000/svg">
<path d="M694.119 236.437C665.005 200.037 663.754 184.212 692.619 165.437C714.617 150.519 730.292 144.828 760 131.937C833.899 101.585 867.823 84.9919 891.119 65.9374C914.415 46.883 913.119 38.4374 925.619 38.4374C938.119 38.4374 891.965 80.8843 865.619 95.4374C839.273 109.991 827.986 121.059 793.619 154.937C789.144 172.212 811.874 206.611 909.619 234.937C909.619 234.937 958.119 256.937 1009.62 223.937C1061.12 190.937 1060.62 189.937 1074.62 172.437C1088.62 154.937 1104.06 130.462 1104.62 140.437C1105.62 158.437 1050.19 216.537 976.619 260.937C1003.01 273.021 1062.06 246.137 1092.62 221.437C1102.75 212.563 1107.01 207.041 1112.62 196.438C1121.43 175.461 1123.79 163.334 1126.12 141.437C1126.12 141.437 1129.12 110.437 1130.12 97.9374C1131.12 85.4374 1134.62 70.9374 1135.62 67.4374C1136.62 63.9374 1141.12 44.9374 1146.62 36.9374C1152.12 28.9374 1163.12 18.4374 1166.12 22.9374C1169.12 27.4374 1160.12 24.9374 1151.12 49.9374C1142.12 74.9374 1142.94 78.2489 1142.62 89.4374C1141.71 112.036 1142.64 124.727 1149.12 147.438C1150.94 162.018 1151.24 170.296 1149.12 185.437C1149.12 185.437 1216.62 105.937 1222.62 108.937C1228.62 111.937 1160.15 194.25 1165.62 196.438C1159.12 213.438 1163.12 241.437 1181.12 242.437C1199.12 243.437 1213.84 225.474 1228.62 209.437C1243.4 193.401 1268.12 150.437 1268.12 150.437C1276.24 144.955 1266.79 176.937 1250.12 201.937C1233.45 226.937 1207.75 253.381 1198.12 256.437C1188.48 259.494 1176.04 264.962 1150.62 266.793C1140.46 267.072 1129.29 269.081 1117.12 272.937C1086.57 284.703 1070.1 289.617 1042.62 293.437C1019.12 296.437 967.323 295.734 931.619 278.937C895.914 262.141 829.377 225.044 779.619 213.937C729.86 202.831 726.123 243.582 724.619 265.937C723.115 288.292 712.283 295.929 700.619 304.437C690.5 311.407 693.119 393.437 721.619 429.437C750.119 465.437 778.119 495.437 837.119 469.937C896.119 444.437 860.619 414.999 875.619 401.937C890.619 388.876 782.119 404.937 745.119 457.937C745.119 457.937 721.119 487.937 703.619 542.437C686.119 596.937 689.119 634.937 689.119 634.937L642.119 672.937L594.119 634.937C594.119 634.937 592.619 532.437 549.619 472.937C533.077 450.049 527.119 438.937 497.119 416.937C467.119 394.937 389.119 391.937 405.119 401.937C421.119 411.937 406.119 427.437 422.119 451.937C438.119 476.437 457.619 477.437 474.119 477.437C490.619 477.437 557.119 478.937 581.119 401.937C594.399 358.131 590.084 310.553 572.619 289.937C561.642 280.356 557.757 273.123 553.619 257.937C551.113 229.51 549.44 221.411 546.119 216.937C536.035 203.593 529.059 198.967 512.119 200.438C453.05 205.738 375.119 259.938 345.619 267.438C316.119 274.938 317.619 277.437 274.119 282.437C230.619 287.437 193.619 273.438 165.119 262.938C136.619 252.438 140.961 257.987 110.619 252.938C79.7216 248.767 68.1188 241.438 41.1188 207.438C14.1188 173.438 6.61877 143.938 9.61877 139.438C12.6188 134.938 37.1188 181.438 45.6188 194.438C54.1188 207.438 78.1188 229.938 92.6188 230.438C107.119 230.938 116.119 219.188 116.119 200.938C116.119 182.688 109.619 173.438 96.6188 154.938C83.6188 136.438 55.9049 108.982 58.1188 99.9375C60.3326 90.8934 124.968 172.119 129.119 173.438C129.119 173.438 125.619 139.437 131.619 125.937C137.619 112.437 138.119 59.4374 127.619 38.4374C117.119 17.4374 106.619 18.4376 113.119 10.4375C119.619 2.43744 133.119 30.4375 133.119 30.4375C133.119 30.4375 142.619 41.9374 148.619 92.9374C154.619 143.937 153.119 138.438 156.619 159.937C160.119 181.437 169.313 192.805 181.619 204.937C193.925 217.07 237.119 245.437 256.119 247.938C275.119 250.438 299.619 252.938 300.119 247.938C300.619 242.937 246.119 219.937 209.119 180.438C172.119 140.938 170.619 128.938 173.619 125.937C176.619 122.937 179.499 142.101 215.119 173.438C250.739 204.775 262.119 210.938 291.119 222.938C309.28 229.581 320.619 231.938 356.619 226.938C392.619 221.937 459.619 186.438 475.119 169.938C488.316 152.873 483.619 138.938 475.119 131.937C466.619 124.937 451.119 105.937 400.119 74.4375C400.119 74.4375 349.619 35.4375 351.619 26.9374C353.619 18.4374 376.619 47.9374 414.619 70.9374C452.619 93.9374 445.619 91.4375 520.619 120.937C595.619 150.437 592.237 153.938 598.619 161.938C605 169.938 635.239 207.344 598.619 236.437" stroke="black" stroke-width="18" stroke-linecap="round"/>
<path d="M694.119 236.437C665.005 200.037 663.754 184.212 692.619 165.437C714.617 150.519 730.292 144.828 760 131.937C833.899 101.585 867.823 84.9919 891.119 65.9374C914.415 46.883 913.119 38.4374 925.619 38.4374C938.119 38.4374 891.965 80.8843 865.619 95.4374C839.273 109.991 827.986 121.059 793.619 154.937C789.144 172.212 811.874 206.611 909.619 234.937C909.619 234.937 958.119 256.937 1009.62 223.937C1061.12 190.937 1060.62 189.937 1074.62 172.437C1088.62 154.937 1104.06 130.462 1104.62 140.437C1105.62 158.437 1050.19 216.537 976.619 260.937C1003.01 273.021 1062.06 246.137 1092.62 221.437C1102.75 212.563 1107.01 207.041 1112.62 196.438C1121.43 175.461 1123.79 163.334 1126.12 141.437C1126.12 141.437 1129.12 110.437 1130.12 97.9374C1131.12 85.4374 1134.62 70.9374 1135.62 67.4374C1136.62 63.9374 1141.12 44.9374 1146.62 36.9374C1152.12 28.9374 1163.12 18.4374 1166.12 22.9374C1169.12 27.4374 1160.12 24.9374 1151.12 49.9374C1142.12 74.9374 1142.94 78.2489 1142.62 89.4374C1141.71 112.036 1142.64 124.727 1149.12 147.438C1150.94 162.018 1151.24 170.296 1149.12 185.437C1149.12 185.437 1216.62 105.937 1222.62 108.937C1228.62 111.937 1160.15 194.25 1165.62 196.438C1159.12 213.438 1163.12 241.437 1181.12 242.437C1199.12 243.437 1213.84 225.474 1228.62 209.437C1243.4 193.401 1268.12 150.437 1268.12 150.437C1276.24 144.955 1266.79 176.937 1250.12 201.937C1233.45 226.937 1207.75 253.381 1198.12 256.437C1188.48 259.494 1176.04 264.962 1150.62 266.793C1140.46 267.072 1129.29 269.081 1117.12 272.937C1086.57 284.703 1070.1 289.617 1042.62 293.437C1019.12 296.437 967.323 295.734 931.619 278.937C895.914 262.141 829.377 225.044 779.619 213.937C729.86 202.831 726.123 243.582 724.619 265.937C723.115 288.292 712.283 295.929 700.619 304.437C690.5 311.407 693.119 393.437 721.619 429.437C750.119 465.437 778.119 495.437 837.119 469.937C896.119 444.437 860.619 414.999 875.619 401.937C890.619 388.876 782.119 404.937 745.119 457.937C745.119 457.937 721.119 487.937 703.619 542.437C686.119 596.937 689.119 634.937 689.119 634.937L642.119 672.937L594.119 634.937C594.119 634.937 592.619 532.437 549.619 472.937C533.077 450.049 527.119 438.937 497.119 416.937C467.119 394.937 389.119 391.937 405.119 401.937C421.119 411.937 406.119 427.437 422.119 451.937C438.119 476.437 457.619 477.437 474.119 477.437C490.619 477.437 557.119 478.937 581.119 401.937C594.399 358.131 590.084 310.553 572.619 289.937C561.642 280.356 557.757 273.123 553.619 257.937C551.113 229.51 549.44 221.411 546.119 216.937C536.035 203.593 529.059 198.967 512.119 200.438C453.05 205.738 375.119 259.938 345.619 267.438C316.119 274.938 317.619 277.437 274.119 282.437C230.619 287.437 193.619 273.438 165.119 262.938C136.619 252.438 140.961 257.987 110.619 252.938C79.7216 248.767 68.1188 241.438 41.1188 207.438C14.1188 173.438 6.61877 143.938 9.61877 139.438C12.6188 134.938 37.1188 181.438 45.6188 194.438C54.1188 207.438 78.1188 229.938 92.6188 230.438C107.119 230.938 116.119 219.188 116.119 200.938C116.119 182.688 109.619 173.438 96.6188 154.938C83.6188 136.438 55.9049 108.982 58.1188 99.9375C60.3326 90.8934 124.968 172.119 129.119 173.438C129.119 173.438 125.619 139.437 131.619 125.937C137.619 112.437 138.119 59.4374 127.619 38.4374C117.119 17.4374 106.619 18.4376 113.119 10.4375C119.619 2.43744 133.119 30.4375 133.119 30.4375C133.119 30.4375 142.619 41.9374 148.619 92.9374C154.619 143.937 153.119 138.438 156.619 159.937C160.119 181.437 169.313 192.805 181.619 204.937C193.925 217.07 237.119 245.437 256.119 247.938C275.119 250.438 299.619 252.938 300.119 247.938C300.619 242.937 246.119 219.937 209.119 180.438C172.119 140.938 170.619 128.938 173.619 125.937C176.619 122.937 179.499 142.101 215.119 173.438C250.739 204.775 262.119 210.938 291.119 222.938C309.28 229.581 320.619 231.938 356.619 226.938C392.619 221.937 459.619 186.438 475.119 169.938C488.316 152.873 483.619 138.938 475.119 131.937C466.619 124.937 451.119 105.937 400.119 74.4375C400.119 74.4375 349.619 35.4375 351.619 26.9374C353.619 18.4374 376.619 47.9374 414.619 70.9374C452.619 93.9374 445.619 91.4375 520.619 120.937C595.619 150.437 592.237 153.938 598.619 161.938C605 169.938 635.239 207.344 598.619 236.437" stroke="black" stroke-opacity="0.2" stroke-width="18" stroke-linecap="round"/>
</svg>
